<svg width="339" height="31" viewBox="0 0 339 31" fill="none" xmlns="http://www.w3.org/2000/svg">
<path fill-rule="evenodd" clip-rule="evenodd" d="M1.47493 31C1.34262 31 1.23907 30.9949 1.16573 30.9863C-1.92342 30.2339 1.80714 12.085 4.48641 9.2107C6.12159 7.45563 6.0051 8.72395 20.1464 7.46591C20.1464 7.46591 41.4627 5.61658 67.66 3.45187C67.66 3.45187 109.76 0.65301 167.718 0.001713C167.824 -9.41575e-07 167.925 0 168.023 0C169.764 0 170.16 0.18339 170.446 0.368495C170.732 0.551887 170.909 0.735279 172.211 0.735279C172.664 0.735279 173.25 0.712998 174.026 0.66158C176.542 0.4919 179.711 0.430198 183.214 0.430198C187.943 0.430198 193.281 0.543318 198.453 0.654724C203.626 0.767844 208.63 0.880964 212.69 0.880964C215.223 0.880964 217.387 0.836401 218.994 0.721567C222.001 0.505611 223.986 0.377065 225.809 0.377065C228.196 0.377065 230.303 0.598163 234.061 1.13291C237.603 1.63681 261.444 2.72345 273.922 2.72345C277.519 2.72345 280.17 2.63432 281.12 2.41323C281.454 2.3361 281.76 2.29839 282.021 2.29839C282.56 2.29839 282.902 2.45607 282.891 2.72345C283.191 2.76458 308.263 5.10925 308.37 5.46575C308.5 5.77426 308.962 5.99707 309.497 5.99707C309.671 5.99707 309.853 5.97307 310.034 5.92166C310.21 5.87024 310.815 5.84796 311.74 5.84796C317.953 5.84796 338.541 6.90546 338.855 7.94753C339.89 11.3788 335.156 24.9155 331.834 28.0486C331.056 28.7822 329.603 29.0581 327.65 29.0581C324.656 29.0581 320.485 28.4068 315.767 27.7572C311.051 27.1059 305.788 26.4563 300.61 26.4563C299.398 26.4563 298.19 26.4923 296.996 26.5712C256.528 23.5889 240.083 22.8091 231.057 22.8091C224.762 22.8091 222.076 23.1879 217.363 23.4621C217.038 23.205 216.516 23.1142 215.86 23.1142C215.081 23.1142 214.114 23.241 213.06 23.3678C212.007 23.4964 210.87 23.6232 209.751 23.6232C208.341 23.6232 206.964 23.421 205.825 22.7611C204.862 22.2041 200.224 21.8613 196.235 21.8613C193.773 21.8613 191.56 21.9915 190.606 22.2846C190.349 22.3635 189.294 22.396 187.632 22.396C185.836 22.396 183.328 22.3566 180.341 22.2966C177.464 22.2383 174.144 22.1664 170.586 22.0909C168.889 22.0567 163.202 21.9744 156.395 21.9744C144.171 21.9744 128.324 22.2383 125.435 23.5101C123.25 23.1553 120.184 23.0062 116.561 23.0062C100.159 23.0062 72.3197 26.0724 62.8796 27.0477C61.7032 26.6997 59.5561 26.554 56.7474 26.554C49.0245 26.554 36.294 27.6647 24.9513 28.777C13.6086 29.8877 3.65085 31 1.47493 31Z" fill="#C2E1BC"/>
</svg>
